<mxfile host="app.diagrams.net" modified="2023-07-19T03:39:01.110Z" agent="Mozilla/5.0 (Windows NT 10.0; Win64; x64) AppleWebKit/537.36 (KHTML, like Gecko) Chrome/113.0.0.0 Safari/537.36 OPR/99.0.0.0" etag="BXfch2Xif3pKd3ea1Mte" version="21.6.2" type="google">
  <diagram name="Page-1" id="pdf92lAs7p1g5eFGPByC">
    <mxGraphModel grid="1" page="1" gridSize="10" guides="1" tooltips="1" connect="1" arrows="1" fold="1" pageScale="1" pageWidth="1169" pageHeight="1654" math="0" shadow="0">
      <root>
        <mxCell id="0" />
        <mxCell id="1" parent="0" />
        <mxCell id="vZfRKAXI7m6lCWT92s2_-4" value="" style="ellipse;html=1;shape=startState;fillColor=#000000;strokeColor=#ff0000;" vertex="1" parent="1">
          <mxGeometry x="500" y="55" width="30" height="30" as="geometry" />
        </mxCell>
        <mxCell id="vZfRKAXI7m6lCWT92s2_-5" value="" style="edgeStyle=orthogonalEdgeStyle;html=1;verticalAlign=bottom;endArrow=open;endSize=8;strokeColor=#ff0000;rounded=0;entryX=0.5;entryY=0;entryDx=0;entryDy=0;" edge="1" parent="1" source="vZfRKAXI7m6lCWT92s2_-4" target="Yhao4mq_l_5nyzQUhMNv-5">
          <mxGeometry relative="1" as="geometry">
            <mxPoint x="515" y="180" as="targetPoint" />
          </mxGeometry>
        </mxCell>
        <mxCell id="vZfRKAXI7m6lCWT92s2_-6" value="Choose Login Option" style="rounded=1;whiteSpace=wrap;html=1;arcSize=40;fontColor=#000000;fillColor=#ffffc0;strokeColor=#ff0000;" vertex="1" parent="1">
          <mxGeometry x="455" y="230" width="120" height="40" as="geometry" />
        </mxCell>
        <mxCell id="vZfRKAXI7m6lCWT92s2_-7" value="" style="edgeStyle=orthogonalEdgeStyle;html=1;verticalAlign=bottom;endArrow=open;endSize=8;strokeColor=#ff0000;rounded=0;entryX=0.5;entryY=0;entryDx=0;entryDy=0;" edge="1" parent="1" source="vZfRKAXI7m6lCWT92s2_-6" target="vZfRKAXI7m6lCWT92s2_-8">
          <mxGeometry relative="1" as="geometry">
            <mxPoint x="515" y="240" as="targetPoint" />
          </mxGeometry>
        </mxCell>
        <mxCell id="vZfRKAXI7m6lCWT92s2_-8" value="Enter Usename and Password" style="rounded=1;whiteSpace=wrap;html=1;arcSize=40;fontColor=#000000;fillColor=#ffffc0;strokeColor=#ff0000;" vertex="1" parent="1">
          <mxGeometry x="455" y="310" width="120" height="40" as="geometry" />
        </mxCell>
        <mxCell id="vZfRKAXI7m6lCWT92s2_-9" value="" style="edgeStyle=orthogonalEdgeStyle;html=1;verticalAlign=bottom;endArrow=open;endSize=8;strokeColor=#ff0000;rounded=0;entryX=0.5;entryY=0;entryDx=0;entryDy=0;" edge="1" parent="1" source="vZfRKAXI7m6lCWT92s2_-8" target="vZfRKAXI7m6lCWT92s2_-10">
          <mxGeometry relative="1" as="geometry">
            <mxPoint x="520" y="350" as="targetPoint" />
          </mxGeometry>
        </mxCell>
        <mxCell id="vZfRKAXI7m6lCWT92s2_-10" value="Validate if Usename and Password are empty" style="rhombus;whiteSpace=wrap;html=1;fontColor=#000000;fillColor=#ffffc0;strokeColor=#ff0000;" vertex="1" parent="1">
          <mxGeometry x="432.5" y="390" width="165" height="90" as="geometry" />
        </mxCell>
        <mxCell id="vZfRKAXI7m6lCWT92s2_-12" value="yes" style="edgeStyle=orthogonalEdgeStyle;html=1;align=left;verticalAlign=top;endArrow=open;endSize=8;strokeColor=#ff0000;rounded=0;entryX=0.5;entryY=0;entryDx=0;entryDy=0;" edge="1" parent="1" source="vZfRKAXI7m6lCWT92s2_-10" target="vZfRKAXI7m6lCWT92s2_-17">
          <mxGeometry x="-1" y="114" relative="1" as="geometry">
            <mxPoint x="515" y="460" as="targetPoint" />
            <mxPoint x="-9" y="-45" as="offset" />
          </mxGeometry>
        </mxCell>
        <mxCell id="vZfRKAXI7m6lCWT92s2_-17" value="Verify Usename and&amp;nbsp;&lt;br&gt;Password in database" style="rhombus;whiteSpace=wrap;html=1;fontColor=#000000;fillColor=#ffffc0;strokeColor=#ff0000;" vertex="1" parent="1">
          <mxGeometry x="425" y="515" width="180" height="90" as="geometry" />
        </mxCell>
        <mxCell id="vZfRKAXI7m6lCWT92s2_-18" value="no" style="edgeStyle=orthogonalEdgeStyle;html=1;align=left;verticalAlign=bottom;endArrow=open;endSize=8;strokeColor=#ff0000;rounded=0;exitX=0;exitY=0.5;exitDx=0;exitDy=0;entryX=1;entryY=0.5;entryDx=0;entryDy=0;" edge="1" parent="1" source="vZfRKAXI7m6lCWT92s2_-17" target="vZfRKAXI7m6lCWT92s2_-25">
          <mxGeometry x="-0.3333" relative="1" as="geometry">
            <mxPoint x="120" y="450" as="targetPoint" />
            <mxPoint as="offset" />
          </mxGeometry>
        </mxCell>
        <mxCell id="vZfRKAXI7m6lCWT92s2_-19" value="yes" style="edgeStyle=orthogonalEdgeStyle;html=1;align=left;verticalAlign=top;endArrow=open;endSize=8;strokeColor=#ff0000;rounded=0;entryX=0.5;entryY=0;entryDx=0;entryDy=0;" edge="1" parent="1" source="vZfRKAXI7m6lCWT92s2_-17" target="vZfRKAXI7m6lCWT92s2_-23">
          <mxGeometry x="-1" relative="1" as="geometry">
            <mxPoint x="515" y="600" as="targetPoint" />
          </mxGeometry>
        </mxCell>
        <mxCell id="vZfRKAXI7m6lCWT92s2_-23" value="&amp;nbsp;User Login Successfully" style="rounded=1;whiteSpace=wrap;html=1;arcSize=40;fontColor=#000000;fillColor=#ffffc0;strokeColor=#ff0000;" vertex="1" parent="1">
          <mxGeometry x="455" y="660" width="120" height="40" as="geometry" />
        </mxCell>
        <mxCell id="vZfRKAXI7m6lCWT92s2_-24" value="" style="edgeStyle=orthogonalEdgeStyle;html=1;verticalAlign=bottom;endArrow=open;endSize=8;strokeColor=#ff0000;rounded=0;entryX=0.5;entryY=0;entryDx=0;entryDy=0;" edge="1" parent="1" source="vZfRKAXI7m6lCWT92s2_-23" target="vZfRKAXI7m6lCWT92s2_-29">
          <mxGeometry relative="1" as="geometry">
            <mxPoint x="515" y="740.7999877929688" as="targetPoint" />
          </mxGeometry>
        </mxCell>
        <mxCell id="vZfRKAXI7m6lCWT92s2_-25" value="Invalid Usename and Password&amp;nbsp;" style="rounded=1;whiteSpace=wrap;html=1;arcSize=40;fontColor=#000000;fillColor=#ffffc0;strokeColor=#ff0000;" vertex="1" parent="1">
          <mxGeometry x="260" y="540" width="120" height="40" as="geometry" />
        </mxCell>
        <mxCell id="vZfRKAXI7m6lCWT92s2_-28" value="" style="edgeStyle=orthogonalEdgeStyle;html=1;verticalAlign=bottom;endArrow=open;endSize=8;strokeColor=#ff0000;rounded=0;entryX=0;entryY=0.5;entryDx=0;entryDy=0;exitX=0.5;exitY=0;exitDx=0;exitDy=0;" edge="1" parent="1" source="Yhao4mq_l_5nyzQUhMNv-22" target="vZfRKAXI7m6lCWT92s2_-8">
          <mxGeometry relative="1" as="geometry">
            <mxPoint x="160" y="405" as="targetPoint" />
            <mxPoint x="320" y="420" as="sourcePoint" />
            <Array as="points">
              <mxPoint x="320" y="330" />
            </Array>
          </mxGeometry>
        </mxCell>
        <mxCell id="vZfRKAXI7m6lCWT92s2_-29" value="Display Main Menu" style="rounded=1;whiteSpace=wrap;html=1;arcSize=40;fontColor=#000000;fillColor=#ffffc0;strokeColor=#ff0000;" vertex="1" parent="1">
          <mxGeometry x="455" y="740" width="120" height="40" as="geometry" />
        </mxCell>
        <mxCell id="vZfRKAXI7m6lCWT92s2_-31" value="" style="ellipse;html=1;shape=endState;fillColor=#000000;strokeColor=#ff0000;" vertex="1" parent="1">
          <mxGeometry x="500" y="812" width="30" height="30" as="geometry" />
        </mxCell>
        <mxCell id="vZfRKAXI7m6lCWT92s2_-34" value="" style="edgeStyle=orthogonalEdgeStyle;html=1;verticalAlign=bottom;endArrow=open;endSize=8;strokeColor=#ff0000;rounded=0;exitX=0.5;exitY=1;exitDx=0;exitDy=0;entryX=0.5;entryY=0;entryDx=0;entryDy=0;" edge="1" parent="1" source="vZfRKAXI7m6lCWT92s2_-29" target="vZfRKAXI7m6lCWT92s2_-31">
          <mxGeometry relative="1" as="geometry">
            <mxPoint x="515" y="830" as="targetPoint" />
            <mxPoint x="537.5" y="770" as="sourcePoint" />
            <Array as="points" />
          </mxGeometry>
        </mxCell>
        <mxCell id="Yhao4mq_l_5nyzQUhMNv-4" style="edgeStyle=orthogonalEdgeStyle;rounded=0;orthogonalLoop=1;jettySize=auto;html=1;entryX=1;entryY=0.5;entryDx=0;entryDy=0;" edge="1" parent="1" source="Yhao4mq_l_5nyzQUhMNv-1" target="Yhao4mq_l_5nyzQUhMNv-3">
          <mxGeometry relative="1" as="geometry" />
        </mxCell>
        <mxCell id="Yhao4mq_l_5nyzQUhMNv-1" value="Choose Register Option" style="rounded=1;whiteSpace=wrap;html=1;arcSize=40;fontColor=#000000;fillColor=#ffffc0;strokeColor=#ff0000;" vertex="1" parent="1">
          <mxGeometry x="250" y="120" width="110" height="40" as="geometry" />
        </mxCell>
        <mxCell id="Yhao4mq_l_5nyzQUhMNv-2" value="" style="edgeStyle=orthogonalEdgeStyle;html=1;verticalAlign=bottom;endArrow=open;endSize=8;strokeColor=#ff0000;rounded=0;exitX=0;exitY=0.5;exitDx=0;exitDy=0;entryX=1;entryY=0.5;entryDx=0;entryDy=0;" edge="1" parent="1" source="Yhao4mq_l_5nyzQUhMNv-5" target="Yhao4mq_l_5nyzQUhMNv-1">
          <mxGeometry relative="1" as="geometry">
            <mxPoint x="720" y="155" as="targetPoint" />
          </mxGeometry>
        </mxCell>
        <mxCell id="Yhao4mq_l_5nyzQUhMNv-3" value="Register" style="ellipse;whiteSpace=wrap;html=1;" vertex="1" parent="1">
          <mxGeometry x="20" y="105" width="140" height="70" as="geometry" />
        </mxCell>
        <mxCell id="Yhao4mq_l_5nyzQUhMNv-5" value="Open the Main menu" style="rounded=1;whiteSpace=wrap;html=1;arcSize=40;fontColor=#000000;fillColor=#ffffc0;strokeColor=#ff0000;" vertex="1" parent="1">
          <mxGeometry x="455" y="120" width="120" height="40" as="geometry" />
        </mxCell>
        <mxCell id="Yhao4mq_l_5nyzQUhMNv-6" value="" style="edgeStyle=orthogonalEdgeStyle;html=1;verticalAlign=bottom;endArrow=open;endSize=8;strokeColor=#ff0000;rounded=0;entryX=0.5;entryY=0;entryDx=0;entryDy=0;" edge="1" parent="1" source="Yhao4mq_l_5nyzQUhMNv-5" target="vZfRKAXI7m6lCWT92s2_-6">
          <mxGeometry relative="1" as="geometry">
            <mxPoint x="730" y="220" as="targetPoint" />
          </mxGeometry>
        </mxCell>
        <mxCell id="Yhao4mq_l_5nyzQUhMNv-7" value="Choose Cancel Option" style="rounded=1;whiteSpace=wrap;html=1;arcSize=40;fontColor=#000000;fillColor=#ffffc0;strokeColor=#ff0000;" vertex="1" parent="1">
          <mxGeometry x="860" y="290" width="120" height="40" as="geometry" />
        </mxCell>
        <mxCell id="Yhao4mq_l_5nyzQUhMNv-8" value="" style="edgeStyle=orthogonalEdgeStyle;html=1;verticalAlign=bottom;endArrow=open;endSize=8;strokeColor=#ff0000;rounded=0;exitX=0.5;exitY=0;exitDx=0;exitDy=0;entryX=1;entryY=0.5;entryDx=0;entryDy=0;" edge="1" parent="1" source="Yhao4mq_l_5nyzQUhMNv-7" target="Yhao4mq_l_5nyzQUhMNv-5">
          <mxGeometry relative="1" as="geometry">
            <mxPoint x="1020" y="190" as="targetPoint" />
            <mxPoint x="390" y="120" as="sourcePoint" />
            <Array as="points">
              <mxPoint x="920" y="140" />
            </Array>
          </mxGeometry>
        </mxCell>
        <mxCell id="Yhao4mq_l_5nyzQUhMNv-15" value="" style="edgeStyle=orthogonalEdgeStyle;html=1;verticalAlign=bottom;endArrow=open;endSize=8;strokeColor=#ff0000;rounded=0;exitX=1;exitY=0.5;exitDx=0;exitDy=0;entryX=0;entryY=0.25;entryDx=0;entryDy=0;" edge="1" parent="1" source="vZfRKAXI7m6lCWT92s2_-6" target="Yhao4mq_l_5nyzQUhMNv-7">
          <mxGeometry relative="1" as="geometry">
            <mxPoint x="840" y="300" as="targetPoint" />
            <mxPoint x="790" y="215" as="sourcePoint" />
          </mxGeometry>
        </mxCell>
        <mxCell id="Yhao4mq_l_5nyzQUhMNv-18" value="" style="edgeStyle=orthogonalEdgeStyle;html=1;verticalAlign=bottom;endArrow=open;endSize=8;strokeColor=#ff0000;rounded=0;exitX=1;exitY=0.25;exitDx=0;exitDy=0;entryX=0;entryY=0.75;entryDx=0;entryDy=0;" edge="1" parent="1" source="vZfRKAXI7m6lCWT92s2_-8" target="Yhao4mq_l_5nyzQUhMNv-7">
          <mxGeometry relative="1" as="geometry">
            <mxPoint x="730" y="280" as="targetPoint" />
            <mxPoint x="730" y="220" as="sourcePoint" />
          </mxGeometry>
        </mxCell>
        <mxCell id="Yhao4mq_l_5nyzQUhMNv-19" value="Display Error Message" style="rounded=1;whiteSpace=wrap;html=1;arcSize=40;fontColor=#000000;fillColor=#ffffc0;strokeColor=#ff0000;" vertex="1" parent="1">
          <mxGeometry x="670" y="415" width="120" height="40" as="geometry" />
        </mxCell>
        <mxCell id="Yhao4mq_l_5nyzQUhMNv-20" value="" style="edgeStyle=orthogonalEdgeStyle;html=1;verticalAlign=bottom;endArrow=open;endSize=8;strokeColor=#ff0000;rounded=0;exitX=1;exitY=0.5;exitDx=0;exitDy=0;entryX=0;entryY=0.5;entryDx=0;entryDy=0;" edge="1" parent="1" source="vZfRKAXI7m6lCWT92s2_-10" target="Yhao4mq_l_5nyzQUhMNv-19">
          <mxGeometry relative="1" as="geometry">
            <mxPoint x="760" y="410" as="targetPoint" />
          </mxGeometry>
        </mxCell>
        <mxCell id="Yhao4mq_l_5nyzQUhMNv-21" value="" style="edgeStyle=orthogonalEdgeStyle;html=1;verticalAlign=bottom;endArrow=open;endSize=8;strokeColor=#ff0000;rounded=0;exitX=0.5;exitY=0;exitDx=0;exitDy=0;entryX=1;entryY=0.5;entryDx=0;entryDy=0;" edge="1" parent="1" source="Yhao4mq_l_5nyzQUhMNv-19" target="vZfRKAXI7m6lCWT92s2_-8">
          <mxGeometry relative="1" as="geometry">
            <mxPoint x="710" y="360" as="targetPoint" />
            <mxPoint x="610.5" y="400" as="sourcePoint" />
          </mxGeometry>
        </mxCell>
        <mxCell id="Yhao4mq_l_5nyzQUhMNv-22" value="Display Error Message" style="rounded=1;whiteSpace=wrap;html=1;arcSize=40;fontColor=#000000;fillColor=#ffffc0;strokeColor=#ff0000;" vertex="1" parent="1">
          <mxGeometry x="260" y="415" width="120" height="40" as="geometry" />
        </mxCell>
        <mxCell id="Yhao4mq_l_5nyzQUhMNv-23" value="" style="edgeStyle=orthogonalEdgeStyle;html=1;verticalAlign=bottom;endArrow=open;endSize=8;strokeColor=#ff0000;rounded=0;exitX=0.5;exitY=0;exitDx=0;exitDy=0;entryX=0.5;entryY=1;entryDx=0;entryDy=0;" edge="1" parent="1" source="vZfRKAXI7m6lCWT92s2_-25" target="Yhao4mq_l_5nyzQUhMNv-22">
          <mxGeometry relative="1" as="geometry">
            <mxPoint x="160" y="510" as="targetPoint" />
            <mxPoint x="220" y="680" as="sourcePoint" />
          </mxGeometry>
        </mxCell>
        <mxCell id="SzpjqoqaXjTVY_zLi5Mj-1" value="no" style="text;html=1;strokeColor=none;fillColor=none;align=center;verticalAlign=middle;whiteSpace=wrap;rounded=0;" vertex="1" parent="1">
          <mxGeometry x="496" y="480" width="60" height="30" as="geometry" />
        </mxCell>
      </root>
    </mxGraphModel>
  </diagram>
</mxfile>
